<svg xmlns="http://www.w3.org/2000/svg" viewBox="0 0 1140 560" width="1140" height="560" preserveAspectRatio="xMidYMid meet" role="img" aria-labelledby="gtb-title gtb-desc">
  <title id="gtb-title">Breach economics and defensive leverage</title>
  <desc id="gtb-desc">Bar chart comparing IBM 2023 and 2024 average global breach costs with three callouts for operational impact and AI-driven savings.</desc>

  <defs>
    <linearGradient id="gtb-bg" x1="0" x2="1" y1="0" y2="1">
      <stop offset="0%" stop-color="#0a0a0a"/>
      <stop offset="100%" stop-color="#0f120f"/>
    </linearGradient>
    <linearGradient id="gtb-barA" x1="0" x2="0" y1="0" y2="1">
      <stop offset="0%" stop-color="#3c493e"/>
      <stop offset="100%" stop-color="#293029"/>
    </linearGradient>
    <linearGradient id="gtb-barB" x1="0" x2="0" y1="0" y2="1">
      <stop offset="0%" stop-color="#00ff41"/>
      <stop offset="100%" stop-color="#00cc33"/>
    </linearGradient>
  </defs>

  <!-- Editorial card frame -->
  <rect width="1140" height="560" rx="24" fill="url(#gtb-bg)"/>
  <rect x="24" y="24" width="1092" height="512" rx="18" fill="none" stroke="#293029" stroke-width="1.5"/>

  <!-- Title block -->
  <text x="68" y="80" fill="#e0e0e0" font-family="'Space Grotesk', sans-serif" font-size="28" font-weight="700">Breach economics keep getting worse</text>
  <text x="68" y="108" fill="#858c85" font-family="'IBM Plex Mono', monospace" font-size="15">IBM Cost of a Data Breach Report 2024: global average rose from USD 4.45M to USD 4.88M.</text>
  <line x1="68" y1="132" x2="1072" y2="132" stroke="#293029" stroke-width="1"/>

  <!-- Chart axes -->
  <line x1="120" y1="420" x2="460" y2="420" stroke="#586e75" stroke-width="2"/>
  <line x1="120" y1="200" x2="120" y2="420" stroke="#586e75" stroke-width="2"/>

  <!-- Y-axis labels -->
  <g fill="#858c85" font-family="'IBM Plex Mono', monospace" font-size="12">
    <text x="92" y="425">0</text>
    <text x="84" y="381">1</text>
    <text x="84" y="337">2</text>
    <text x="84" y="293">3</text>
    <text x="84" y="249">4</text>
    <text x="84" y="205">5</text>
    <text x="70" y="180">USD M</text>
  </g>

  <!-- Grid lines -->
  <g stroke="#293029" stroke-width="1">
    <line x1="120" y1="376" x2="460" y2="376"/>
    <line x1="120" y1="332" x2="460" y2="332"/>
    <line x1="120" y1="288" x2="460" y2="288"/>
    <line x1="120" y1="244" x2="460" y2="244"/>
    <line x1="120" y1="200" x2="460" y2="200"/>
  </g>

  <!-- Bars -->
  <rect x="175" y="232" width="92" height="188" rx="10" fill="url(#gtb-barA)"/>
  <rect x="315" y="211" width="92" height="209" rx="10" fill="url(#gtb-barB)"/>

  <!-- Bar labels -->
  <g fill="#e0e0e0" font-family="'Space Grotesk', sans-serif" text-anchor="middle">
    <text x="221" y="220" font-size="22" font-weight="700">4.45</text>
    <text x="221" y="447" font-size="14">2023</text>
    <text x="361" y="199" font-size="22" font-weight="700">4.88</text>
    <text x="361" y="447" font-size="14">2024</text>
  </g>

  <!-- Callout cards (right side) -->
  <g transform="translate(540, 172)">
    <rect width="532" height="84" rx="12" fill="#0a1a0d" stroke="#00ff41" stroke-width="1"/>
    <text x="24" y="34" fill="#00ff41" font-family="'IBM Plex Mono', monospace" font-size="11" letter-spacing="1.2">AI IN PREVENTION</text>
    <text x="24" y="62" fill="#e0e0e0" font-family="'Space Grotesk', sans-serif" font-size="17" font-weight="700">USD 2.2M lower average breach cost</text>
  </g>

  <g transform="translate(540, 276)">
    <rect width="532" height="84" rx="12" fill="#0a1a0d" stroke="#00ff41" stroke-width="1"/>
    <text x="24" y="34" fill="#00ff41" font-family="'IBM Plex Mono', monospace" font-size="11" letter-spacing="1.2">AI AND AUTOMATION</text>
    <text x="24" y="62" fill="#e0e0e0" font-family="'Space Grotesk', sans-serif" font-size="17" font-weight="700">Nearly 100 fewer days to identify and contain</text>
  </g>

  <g transform="translate(540, 380)">
    <rect width="532" height="84" rx="12" fill="#0f120f" stroke="#3c493e" stroke-width="1"/>
    <text x="24" y="34" fill="#00ff41" font-family="'IBM Plex Mono', monospace" font-size="11" letter-spacing="1.2">OPERATIONAL IMPACT</text>
    <text x="24" y="62" fill="#e0e0e0" font-family="'Space Grotesk', sans-serif" font-size="17" font-weight="700">70% reported moderate or major disruption</text>
  </g>

  <!-- Source -->
  <text x="68" y="516" fill="#586e75" font-family="'IBM Plex Mono', monospace" font-size="11">Source: IBM Cost of a Data Breach Report 2024. Visualization redrawn for this post.</text>
</svg>
